<svg width="194" height="36" viewBox="0 0 194 36" fill="none" xmlns="http://www.w3.org/2000/svg">
<circle cx="17.9032" cy="18" r="17.9032" fill="#28CDCF"/>
<circle cx="51.0483" cy="18.2421" r="8.95161" fill="#A873E8"/>
<path d="M83.2074 13.8438C83.1278 13.0994 82.7926 12.5199 82.2017 12.1051C81.6165 11.6903 80.8551 11.483 79.9176 11.483C79.2585 11.483 78.6932 11.5824 78.2216 11.7812C77.75 11.9801 77.3892 12.25 77.1392 12.5909C76.8892 12.9318 76.7614 13.321 76.7557 13.7585C76.7557 14.1222 76.8381 14.4375 77.0028 14.7045C77.1733 14.9716 77.4034 15.1989 77.6932 15.3864C77.983 15.5682 78.304 15.7216 78.6562 15.8466C79.0085 15.9716 79.3636 16.0767 79.7216 16.1619L81.358 16.571C82.017 16.7244 82.6506 16.9318 83.2585 17.1932C83.8722 17.4545 84.4205 17.7841 84.9034 18.1818C85.392 18.5795 85.7784 19.0597 86.0625 19.6222C86.3466 20.1847 86.4886 20.8437 86.4886 21.5994C86.4886 22.6222 86.2273 23.5227 85.7045 24.3011C85.1818 25.0739 84.4261 25.679 83.4375 26.1165C82.4545 26.5483 81.2642 26.7642 79.8665 26.7642C78.5085 26.7642 77.3295 26.554 76.3295 26.1335C75.3352 25.7131 74.5568 25.0994 73.9943 24.2926C73.4375 23.4858 73.1364 22.5028 73.0909 21.3438H76.2017C76.2472 21.9517 76.4347 22.4574 76.7642 22.8608C77.0938 23.2642 77.5227 23.5653 78.0511 23.7642C78.5852 23.9631 79.1818 24.0625 79.8409 24.0625C80.5284 24.0625 81.1307 23.9602 81.6477 23.7557C82.1705 23.5455 82.5795 23.2557 82.875 22.8864C83.1705 22.5114 83.321 22.0739 83.3267 21.5739C83.321 21.1193 83.1875 20.7443 82.9261 20.4489C82.6648 20.1477 82.2983 19.8977 81.8267 19.6989C81.3608 19.4943 80.8153 19.3125 80.1903 19.1534L78.2045 18.642C76.767 18.2727 75.6307 17.7131 74.7955 16.9631C73.9659 16.2074 73.5511 15.2045 73.5511 13.9545C73.5511 12.9261 73.8295 12.0256 74.3864 11.2528C74.9489 10.4801 75.7131 9.88068 76.679 9.45454C77.6449 9.02273 78.7386 8.80682 79.9602 8.80682C81.1989 8.80682 82.2841 9.02273 83.2159 9.45454C84.1534 9.88068 84.8892 10.4744 85.4233 11.2358C85.9574 11.9915 86.233 12.8608 86.25 13.8438H83.2074ZM92.9382 26.7642C92.1087 26.7642 91.3615 26.6165 90.6967 26.321C90.0376 26.0199 89.5149 25.5767 89.1286 24.9915C88.7479 24.4062 88.5575 23.6847 88.5575 22.8267C88.5575 22.0881 88.6939 21.4773 88.9666 20.9943C89.2393 20.5114 89.6115 20.125 90.0831 19.8352C90.5547 19.5455 91.0859 19.3267 91.6768 19.179C92.2734 19.0256 92.8899 18.9148 93.5263 18.8466C94.2933 18.767 94.9155 18.696 95.3928 18.6335C95.87 18.5653 96.2166 18.4631 96.4325 18.3267C96.6541 18.1847 96.7649 17.9659 96.7649 17.6705V17.6193C96.7649 16.9773 96.5746 16.4801 96.1939 16.1278C95.8132 15.7756 95.2649 15.5994 94.549 15.5994C93.7933 15.5994 93.1939 15.7642 92.7507 16.0938C92.3132 16.4233 92.0178 16.8125 91.8643 17.2614L88.9837 16.8523C89.2109 16.0568 89.5859 15.392 90.1087 14.858C90.6314 14.3182 91.2706 13.9148 92.0263 13.6477C92.782 13.375 93.6172 13.2386 94.532 13.2386C95.1626 13.2386 95.7905 13.3125 96.4155 13.4602C97.0405 13.608 97.6115 13.8523 98.1286 14.1932C98.6456 14.5284 99.0604 14.9858 99.3729 15.5653C99.6911 16.1449 99.8501 16.8693 99.8501 17.7386V26.5H96.8842V24.7017H96.782C96.5945 25.0653 96.3303 25.4062 95.9893 25.7244C95.6541 26.0369 95.2308 26.2898 94.7195 26.483C94.2138 26.6705 93.62 26.7642 92.9382 26.7642ZM93.7393 24.4972C94.3587 24.4972 94.8956 24.375 95.3501 24.1307C95.8047 23.8807 96.1541 23.5511 96.3984 23.142C96.6484 22.733 96.7734 22.2869 96.7734 21.804V20.2614C96.6768 20.3409 96.5121 20.4148 96.2791 20.483C96.0518 20.5511 95.7962 20.6108 95.5121 20.6619C95.228 20.7131 94.9467 20.7585 94.6683 20.7983C94.3899 20.8381 94.1484 20.8722 93.9439 20.9006C93.4837 20.9631 93.0717 21.0653 92.7081 21.2074C92.3445 21.3494 92.0575 21.5483 91.8473 21.804C91.6371 22.054 91.532 22.3778 91.532 22.7756C91.532 23.3438 91.7393 23.7727 92.1541 24.0625C92.5689 24.3523 93.0973 24.4972 93.7393 24.4972ZM104.401 31.4091C103.981 31.4091 103.592 31.375 103.234 31.3068C102.881 31.2443 102.6 31.1705 102.39 31.0852L103.106 28.6818C103.555 28.8125 103.955 28.875 104.308 28.8693C104.66 28.8636 104.969 28.7528 105.237 28.5369C105.509 28.3267 105.739 27.9744 105.927 27.4801L106.191 26.7727L101.444 13.4091H104.717L107.734 23.2955H107.87L110.896 13.4091H114.177L108.935 28.0852C108.691 28.7784 108.367 29.3722 107.964 29.8665C107.56 30.3665 107.066 30.7472 106.481 31.0085C105.901 31.2756 105.208 31.4091 104.401 31.4091Z" fill="black"/>
<path d="M122.401 26.5V9.04545H129.083C130.344 9.04545 131.393 9.24432 132.228 9.64204C133.069 10.0341 133.697 10.571 134.112 11.2528C134.532 11.9347 134.742 12.7074 134.742 13.571C134.742 14.2812 134.606 14.8892 134.333 15.3949C134.06 15.8949 133.694 16.3011 133.234 16.6136C132.773 16.9261 132.259 17.1506 131.691 17.2869V17.4574C132.31 17.4915 132.904 17.6818 133.472 18.0284C134.046 18.3693 134.515 18.8523 134.879 19.4773C135.242 20.1023 135.424 20.858 135.424 21.7443C135.424 22.6477 135.205 23.4602 134.768 24.1818C134.33 24.8977 133.671 25.4631 132.79 25.8778C131.91 26.2926 130.802 26.5 129.467 26.5H122.401ZM125.563 23.858H128.964C130.112 23.858 130.938 23.6392 131.444 23.2017C131.955 22.7585 132.211 22.1903 132.211 21.4972C132.211 20.9801 132.083 20.5142 131.827 20.0994C131.572 19.679 131.208 19.3494 130.737 19.1108C130.265 18.8665 129.702 18.7443 129.049 18.7443H125.563V23.858ZM125.563 16.4688H128.691C129.237 16.4688 129.728 16.3693 130.165 16.1705C130.603 15.9659 130.947 15.679 131.197 15.3097C131.452 14.9347 131.58 14.4915 131.58 13.9801C131.58 13.304 131.342 12.7472 130.864 12.3097C130.393 11.8722 129.691 11.6534 128.759 11.6534H125.563V16.4688ZM141.124 9.04545V26.5H138.038V9.04545H141.124ZM150.006 26.7557C148.728 26.7557 147.62 26.4744 146.683 25.9119C145.745 25.3494 145.018 24.5625 144.501 23.5511C143.989 22.5398 143.734 21.358 143.734 20.0057C143.734 18.6534 143.989 17.4687 144.501 16.4517C145.018 15.4347 145.745 14.6449 146.683 14.0824C147.62 13.5199 148.728 13.2386 150.006 13.2386C151.285 13.2386 152.393 13.5199 153.33 14.0824C154.268 14.6449 154.992 15.4347 155.504 16.4517C156.021 17.4687 156.279 18.6534 156.279 20.0057C156.279 21.358 156.021 22.5398 155.504 23.5511C154.992 24.5625 154.268 25.3494 153.33 25.9119C152.393 26.4744 151.285 26.7557 150.006 26.7557ZM150.023 24.2841C150.717 24.2841 151.296 24.0937 151.762 23.7131C152.228 23.3267 152.575 22.8097 152.802 22.1619C153.035 21.5142 153.151 20.7926 153.151 19.9972C153.151 19.196 153.035 18.4716 152.802 17.8239C152.575 17.1705 152.228 16.6506 151.762 16.2642C151.296 15.8778 150.717 15.6847 150.023 15.6847C149.313 15.6847 148.722 15.8778 148.251 16.2642C147.785 16.6506 147.435 17.1705 147.202 17.8239C146.975 18.4716 146.862 19.196 146.862 19.9972C146.862 20.7926 146.975 21.5142 147.202 22.1619C147.435 22.8097 147.785 23.3267 148.251 23.7131C148.722 24.0937 149.313 24.2841 150.023 24.2841ZM164.608 26.7557C163.33 26.7557 162.222 26.4744 161.284 25.9119C160.347 25.3494 159.619 24.5625 159.102 23.5511C158.591 22.5398 158.335 21.358 158.335 20.0057C158.335 18.6534 158.591 17.4687 159.102 16.4517C159.619 15.4347 160.347 14.6449 161.284 14.0824C162.222 13.5199 163.33 13.2386 164.608 13.2386C165.886 13.2386 166.994 13.5199 167.932 14.0824C168.869 14.6449 169.594 15.4347 170.105 16.4517C170.622 17.4687 170.881 18.6534 170.881 20.0057C170.881 21.358 170.622 22.5398 170.105 23.5511C169.594 24.5625 168.869 25.3494 167.932 25.9119C166.994 26.4744 165.886 26.7557 164.608 26.7557ZM164.625 24.2841C165.318 24.2841 165.898 24.0937 166.364 23.7131C166.83 23.3267 167.176 22.8097 167.403 22.1619C167.636 21.5142 167.753 20.7926 167.753 19.9972C167.753 19.196 167.636 18.4716 167.403 17.8239C167.176 17.1705 166.83 16.6506 166.364 16.2642C165.898 15.8778 165.318 15.6847 164.625 15.6847C163.915 15.6847 163.324 15.8778 162.852 16.2642C162.386 16.6506 162.037 17.1705 161.804 17.8239C161.577 18.4716 161.463 19.196 161.463 19.9972C161.463 20.7926 161.577 21.5142 161.804 22.1619C162.037 22.8097 162.386 23.3267 162.852 23.7131C163.324 24.0937 163.915 24.2841 164.625 24.2841ZM173.499 26.5V13.4091H176.448V15.6335H176.602C176.874 14.8835 177.326 14.2983 177.957 13.8778C178.587 13.4517 179.34 13.2386 180.215 13.2386C181.102 13.2386 181.849 13.4545 182.457 13.8864C183.07 14.3125 183.502 14.8949 183.752 15.6335H183.888C184.178 14.9062 184.667 14.3267 185.354 13.8949C186.048 13.4574 186.869 13.2386 187.817 13.2386C189.022 13.2386 190.005 13.6193 190.766 14.3807C191.528 15.142 191.908 16.2528 191.908 17.7131V26.5H188.815V18.1903C188.815 17.3778 188.599 16.7841 188.167 16.4091C187.735 16.0284 187.207 15.8381 186.582 15.8381C185.837 15.8381 185.255 16.071 184.835 16.5369C184.42 16.9972 184.212 17.5966 184.212 18.3352V26.5H181.187V18.0625C181.187 17.3864 180.982 16.8466 180.573 16.4432C180.17 16.0398 179.641 15.8381 178.988 15.8381C178.545 15.8381 178.141 15.9517 177.778 16.179C177.414 16.4006 177.124 16.7159 176.908 17.125C176.692 17.5284 176.585 18 176.585 18.5398V26.5H173.499Z" fill="#A873E8"/>
</svg>
